<?xml version="1.0" encoding="utf-8"?>
<!-- Generator: Adobe Illustrator 16.0.0, SVG Export Plug-In . SVG Version: 6.00 Build 0)  -->
<!DOCTYPE svg PUBLIC "-//W3C//DTD SVG 1.1//EN" "http://www.w3.org/Graphics/SVG/1.1/DTD/svg11.dtd">
<svg version="1.1" id="Layer_1" xmlns="http://www.w3.org/2000/svg" xmlns:xlink="http://www.w3.org/1999/xlink" x="0px" y="0px"
	 width="486px" height="194px" viewBox="0 0 486 194" enable-background="new 0 0 486 194" xml:space="preserve">
<ellipse fill="#EFEFF4" stroke="#0099F8" stroke-width="10" stroke-miterlimit="10" cx="94" cy="120" rx="74" ry="38"/>
<ellipse fill="#EFEFF4" stroke="#0099F8" stroke-width="10" stroke-miterlimit="10" cx="94" cy="99" rx="74" ry="38"/>
<ellipse fill="#EFEFF4" stroke="#0099F8" stroke-width="10" stroke-miterlimit="10" cx="94" cy="78" rx="74" ry="38"/>
<ellipse fill="#EFEFF4" stroke="#0099F8" stroke-width="10" stroke-miterlimit="10" cx="94" cy="57" rx="74" ry="38"/>
<ellipse fill="#EFEFF4" stroke="#0099F8" stroke-width="8" stroke-miterlimit="10" cx="94.263" cy="57" rx="44.793" ry="23.002"/>
<g>
	<path fill="#0099F8" d="M241.783,41.702c5.854,0,11.063,0.485,15.625,1.455c4.561,0.97,8.558,2.316,11.988,4.041
		c3.429,1.724,6.332,3.781,8.702,6.169c2.37,2.389,4.292,4.993,5.765,7.812c1.473,2.82,2.541,5.811,3.206,8.971
		c0.665,3.161,0.997,6.394,0.997,9.699c0,4.526-0.503,9.115-1.509,13.766c-1.006,4.652-2.46,9.151-4.364,13.497
		c-1.904,4.347-4.248,8.424-7.031,12.231c-2.784,3.808-5.972,7.13-9.563,9.968c-3.592,2.838-7.543,5.074-11.854,6.708
		c-4.31,1.634-8.962,2.452-13.955,2.452c-1.688,0-3.413-0.126-5.172-0.377c-1.76-0.251-3.467-0.592-5.119-1.023
		c-1.652-0.431-3.215-0.916-4.688-1.455c-1.473-0.539-2.766-1.095-3.879-1.67c-0.467-0.143-0.835-0.314-1.104-0.512
		c-0.27-0.197-0.477-0.431-0.62-0.7c-0.144-0.27-0.234-0.601-0.27-0.997c-0.036-0.395-0.054-0.897-0.054-1.508
		c0-5.962,0.152-12.069,0.458-18.319c0.305-6.25,0.924-12.356,1.859-18.319c0.934-5.962,2.281-11.646,4.041-17.053
		c1.759-5.406,4.095-10.246,7.004-14.521c2.55-1.76,4.867-2.64,6.951-2.64c2.622,0,4.813,1.473,6.573,4.418
		c-1.653,2.228-3.036,4.706-4.149,7.436c-1.114,2.73-2.047,5.595-2.802,8.594c-0.754,3-1.383,6.062-1.886,9.187
		c-0.503,3.125-0.97,6.178-1.401,9.159c-0.503,3.306-0.925,6.134-1.266,8.486c-0.342,2.353-0.611,4.41-0.808,6.169
		c-0.198,1.76-0.342,3.305-0.431,4.634c-0.09,1.329-0.135,2.622-0.135,3.879c0,1.329,0.045,2.443,0.135,3.34
		c0.089,0.898,0.305,1.616,0.646,2.155c0.341,0.539,0.862,0.925,1.562,1.158c0.701,0.234,1.644,0.351,2.829,0.351
		c3.592,0,7.004-0.709,10.237-2.128c3.233-1.418,6.214-3.322,8.944-5.711c2.729-2.388,5.181-5.163,7.354-8.324
		c2.173-3.161,4.022-6.501,5.55-10.022c1.526-3.52,2.702-7.103,3.529-10.749c0.825-3.646,1.239-7.157,1.239-10.534
		c0-4.167-0.684-7.894-2.048-11.18c-1.365-3.287-3.278-6.07-5.738-8.351c-2.46-2.281-5.415-4.023-8.863-5.227
		c-3.448-1.203-7.238-1.805-11.369-1.805c-3.017,0-6.007,0.18-8.971,0.539c-2.964,0.359-5.711,0.916-8.244,1.67
		c-2.532,0.754-4.76,1.715-6.681,2.882c-1.922,1.167-3.368,2.56-4.337,4.176c-2.623,4.06-4.778,7.193-6.466,9.402
		c-1.688,2.209-3.106,3.314-4.256,3.314c-1.581,0-2.371-1.813-2.371-5.442c0-3.52,0.458-6.681,1.374-9.483s2.191-5.289,3.826-7.462
		c1.634-2.173,3.574-4.022,5.819-5.55c2.245-1.526,4.706-2.783,7.382-3.771c2.675-0.988,5.522-1.715,8.54-2.182
		C235.533,41.936,238.622,41.702,241.783,41.702z"/>
	<path fill="#0099F8" d="M320.395,123.761c-1.293,1.186-2.9,2.452-4.822,3.799c-1.922,1.347-3.996,2.586-6.223,3.718
		c-2.229,1.131-4.5,2.074-6.816,2.829s-4.518,1.131-6.6,1.131c-1.869,0-3.441-0.26-4.715-0.781
		c-1.275-0.521-2.309-1.248-3.098-2.182c-0.791-0.934-1.357-2.074-1.697-3.421c-0.342-1.347-0.512-2.829-0.512-4.445
		c0-2.263,0.26-4.894,0.781-7.893c0.52-2.999,1.158-6.106,1.912-9.321c0.754-3.214,1.553-6.42,2.398-9.618
		c0.842-3.197,1.588-6.143,2.234-8.836c0.252-0.934,0.756-1.733,1.51-2.398c0.754-0.664,1.607-1.203,2.559-1.616
		c0.951-0.413,1.939-0.718,2.963-0.916c1.025-0.197,1.949-0.296,2.775-0.296c1.51,0,2.533,0.279,3.072,0.835
		c0.537,0.557,0.807,1.302,0.807,2.236c0,0.791-0.18,1.931-0.537,3.421c-0.361,1.491-0.809,3.179-1.348,5.065
		c-0.539,1.886-1.113,3.916-1.725,6.088c-0.611,2.174-1.186,4.347-1.725,6.52c-0.539,2.173-0.988,4.292-1.346,6.358
		c-0.359,2.066-0.539,3.925-0.539,5.576c0,1.617,0.18,2.901,0.539,3.853c0.357,0.952,1.094,1.428,2.209,1.428
		c1.293,0,2.729-0.449,4.311-1.347c1.58-0.897,3.178-1.984,4.795-3.26c1.615-1.275,3.195-2.595,4.74-3.96
		c1.545-1.365,2.91-2.532,4.096-3.502V123.761z M296.311,68.373c0-0.826,0.18-1.76,0.539-2.802c0.357-1.042,0.941-2.021,1.75-2.937
		s1.887-1.688,3.232-2.317c1.348-0.628,3.027-0.943,5.039-0.943c1.256,0,2.441,0.144,3.557,0.431
		c1.111,0.288,2.082,0.727,2.908,1.32s1.482,1.374,1.967,2.344s0.729,2.12,0.729,3.448c0,1.222-0.199,2.407-0.594,3.556
		c-0.396,1.15-1.023,2.174-1.885,3.071c-0.863,0.898-1.949,1.625-3.26,2.182c-1.312,0.558-2.883,0.835-4.715,0.835
		c-3.162,0-5.496-0.745-7.006-2.236C297.064,72.836,296.311,70.851,296.311,68.373z"/>
	<path fill="#0099F8" d="M314.846,114.548c2.011-1.724,3.645-3.161,4.902-4.311c1.258-1.149,2.335-2.2,3.233-3.152
		c0.897-0.951,1.715-1.913,2.451-2.883c0.736-0.97,1.607-2.119,2.613-3.448c1.005-1.329,2.227-2.954,3.664-4.876
		c1.437-1.921,3.305-4.319,5.604-7.193c0.467-0.646,0.987-1.274,1.562-1.886c0.574-0.61,1.212-1.158,1.913-1.643
		c0.7-0.485,1.472-0.88,2.316-1.186c0.844-0.305,1.786-0.458,2.829-0.458c1.724,0,3.053,0.188,3.986,0.566
		c0.935,0.377,1.617,0.835,2.048,1.374c0.431,0.539,0.682,1.104,0.754,1.697c0.072,0.592,0.108,1.104,0.108,1.535
		c0,0.862-0.342,1.814-1.023,2.856c-0.684,1.042-1.438,2.047-2.264,3.017s-1.607,1.859-2.344,2.667
		c-0.736,0.809-1.158,1.41-1.266,1.805c0,1.114,0.08,2.128,0.242,3.044c0.161,0.916,0.377,1.814,0.646,2.694
		c0.27,0.88,0.547,1.814,0.835,2.802c0.287,0.988,0.566,2.128,0.835,3.421c0.27,1.293,0.485,2.784,0.646,4.472
		c0.162,1.688,0.243,3.682,0.243,5.98c1.293-0.862,2.685-1.643,4.176-2.344c1.49-0.7,3.044-1.428,4.66-2.182
		s3.277-1.589,4.984-2.505c1.705-0.916,3.421-2.021,5.146-3.313l0.054,12.069c-2.228,1.724-4.805,3.341-7.731,4.85
		c-2.929,1.508-6,2.838-9.214,3.987c-3.215,1.15-6.466,2.057-9.752,2.721c-3.287,0.664-6.403,0.997-9.349,0.997
		c-2.12,0-4.095-0.198-5.927-0.593c-1.832-0.395-3.44-1.014-4.822-1.859c-1.384-0.843-2.506-1.948-3.367-3.313
		c-0.862-1.365-1.384-3.017-1.562-4.957c-0.504,0.108-0.997,0.18-1.482,0.216c-0.484,0.036-0.961,0.054-1.428,0.054
		c-0.575,0-1.113-0.018-1.616-0.054c-0.504-0.036-0.935-0.17-1.293-0.404c-0.359-0.233-0.646-0.61-0.862-1.131
		c-0.216-0.521-0.323-1.267-0.323-2.236c0-0.862,0.216-1.661,0.646-2.397c0.431-0.736,0.934-1.392,1.509-1.967
		c0.574-0.574,1.149-1.078,1.724-1.509C314.126,115.141,314.558,114.799,314.846,114.548z M321.742,121.444
		c0.431,0,0.906,0.27,1.428,0.808c0.521,0.539,1.122,1.132,1.805,1.778s1.473,1.239,2.371,1.778
		c0.897,0.539,1.921,0.809,3.071,0.809c1.4,0,2.559-0.233,3.475-0.701c0.916-0.466,1.644-1.086,2.183-1.859
		c0.539-0.772,0.916-1.67,1.132-2.694c0.215-1.024,0.323-2.092,0.323-3.206c0-0.97-0.063-1.958-0.188-2.963
		c-0.127-1.005-0.288-1.967-0.485-2.883c-0.198-0.916-0.413-1.778-0.646-2.586c-0.234-0.808-0.44-1.5-0.62-2.074L321.742,121.444z"
		/>
	<path fill="#0099F8" d="M381.765,101.724c1.473-1.939,3.125-4.022,4.957-6.25c1.832-2.227,3.735-4.301,5.711-6.223
		c1.976-1.921,3.942-3.52,5.9-4.795c1.957-1.274,3.799-1.913,5.522-1.913c0.431,0,0.916,0.081,1.455,0.243
		c0.538,0.162,1.051,0.458,1.535,0.889c0.485,0.431,0.89,1.033,1.213,1.805c0.323,0.773,0.484,1.77,0.484,2.99
		c0,2.443-0.342,4.822-1.023,7.139c-0.683,2.317-1.428,4.634-2.236,6.951c-0.808,2.317-1.545,4.679-2.209,7.085
		c-0.665,2.407-0.997,4.922-0.997,7.543c0,1.437,0.216,2.586,0.646,3.448c0.432,0.862,0.988,1.293,1.671,1.293
		c0.862,0,1.778-0.179,2.748-0.539c0.97-0.359,1.939-0.826,2.909-1.401c0.97-0.574,1.921-1.23,2.855-1.967
		c0.934-0.736,1.813-1.5,2.641-2.29c1.975-1.832,3.914-3.915,5.818-6.25l0.916,14.333c-0.646,0.503-1.464,1.131-2.451,1.886
		c-0.988,0.754-2.084,1.554-3.287,2.397c-1.203,0.844-2.505,1.697-3.906,2.56c-1.4,0.862-2.811,1.625-4.229,2.29
		c-1.419,0.665-2.838,1.212-4.256,1.644c-1.42,0.431-2.775,0.646-4.068,0.646c-1.976,0-3.69-0.53-5.146-1.589
		c-1.455-1.059-2.649-2.406-3.583-4.041c-0.935-1.634-1.635-3.421-2.102-5.361c-0.467-1.939-0.7-3.771-0.7-5.496
		c0-1.149,0.152-2.433,0.458-3.853c0.305-1.418,0.682-2.846,1.131-4.283c0.449-1.437,0.952-2.837,1.509-4.203
		c0.557-1.365,1.078-2.586,1.562-3.664c0.485-1.078,0.907-1.958,1.267-2.64c0.358-0.682,0.593-1.078,0.7-1.186l-1.131-0.162
		c-0.611,0.396-1.644,1.401-3.099,3.018c-1.455,1.616-3.098,3.655-4.93,6.115c-1.832,2.461-3.728,5.227-5.685,8.297
		c-1.958,3.071-3.728,6.242-5.308,9.51c-0.79,1.616-1.437,3.026-1.939,4.229c-0.503,1.204-0.997,2.191-1.481,2.963
		c-0.485,0.773-1.016,1.356-1.59,1.751c-0.575,0.396-1.312,0.593-2.209,0.593c-1.186,0-2.12-0.341-2.802-1.024
		c-0.683-0.682-1.204-1.589-1.562-2.721c-0.359-1.131-0.593-2.416-0.7-3.853c-0.108-1.436-0.162-2.91-0.162-4.418
		c0-2.406,0.027-5.558,0.081-9.456c0.054-3.897,0.224-8.217,0.512-12.958c0.287-4.741,0.7-9.733,1.239-14.979
		c0.539-5.244,1.302-10.426,2.29-15.544c0.987-5.119,2.227-10.003,3.718-14.655c1.49-4.651,3.305-8.747,5.442-12.285
		c2.136-3.538,4.642-6.349,7.516-8.433c2.873-2.083,6.178-3.125,9.914-3.125c1.939,0,3.529,0.288,4.769,0.862
		c1.239,0.575,2.227,1.383,2.963,2.425c0.736,1.042,1.248,2.29,1.536,3.745c0.287,1.455,0.431,3.08,0.431,4.876
		c0,2.659-0.377,5.604-1.131,8.836c-0.755,3.233-1.751,6.592-2.99,10.076c-1.239,3.484-2.649,7.014-4.23,10.587
		c-1.581,3.575-3.197,7.041-4.849,10.399c-1.652,3.359-3.278,6.529-4.876,9.51c-1.599,2.982-3.009,5.604-4.229,7.867
		L381.765,101.724z M386.56,68.426c2.119-5.496,3.655-10.129,4.607-13.901c0.951-3.772,1.428-6.555,1.428-8.352
		c0-2.729-0.359-4.095-1.078-4.095c-0.935,0-2.316,1.527-4.148,4.58c-1.832,3.054-3.987,7.489-6.466,13.309
		c-0.611,1.976-1.177,4.023-1.697,6.142c-0.521,2.12-0.988,4.229-1.4,6.331c-0.414,2.101-0.791,4.167-1.132,6.196
		c-0.342,2.03-0.638,3.96-0.889,5.792c-0.611,4.275-1.078,8.459-1.401,12.554c0.97-2.263,2.029-4.723,3.179-7.382
		c1.149-2.658,2.281-5.289,3.395-7.893c1.113-2.604,2.164-5.065,3.152-7.382C385.096,72.009,385.913,70.043,386.56,68.426z"/>
	<path fill="#0099F8" d="M445.99,93.858c0.287-1.221,0.799-2.308,1.535-3.26c0.736-0.952,1.581-1.751,2.533-2.398
		c0.951-0.646,1.947-1.131,2.99-1.455c1.041-0.323,2.028-0.485,2.963-0.485c1.113,0,2.048,0.242,2.802,0.728
		c0.755,0.485,1.132,1.248,1.132,2.29c0,0.323-0.054,0.701-0.162,1.132c-0.215,0.934-0.484,2.209-0.808,3.825
		c-0.323,1.617-0.674,3.448-1.051,5.496c-0.377,2.047-0.764,4.212-1.158,6.492c-0.396,2.282-0.773,4.553-1.132,6.816
		c-0.898,5.316-1.814,11.028-2.748,17.134c1.078-0.61,2.244-1.364,3.502-2.263c1.257-0.897,2.658-2.102,4.203-3.61
		c1.544-1.509,3.269-3.403,5.173-5.685c1.903-2.281,4.041-5.127,6.411-8.54l2.586,11.961c-0.646,1.114-1.481,2.254-2.505,3.421
		c-1.023,1.167-2.155,2.335-3.395,3.502c-1.239,1.167-2.532,2.299-3.879,3.394c-1.348,1.096-2.668,2.128-3.961,3.098
		c-3.053,2.298-6.34,4.526-9.859,6.682c-0.684,3.844-1.491,7.588-2.425,11.234c-0.935,3.645-2.039,7.059-3.313,10.236
		c-1.275,3.18-2.73,6.098-4.364,8.756c-1.636,2.658-3.485,4.938-5.55,6.842c-2.066,1.904-4.374,3.387-6.924,4.445
		c-2.551,1.061-5.37,1.59-8.459,1.59c-1.222,0-2.542-0.125-3.961-0.377s-2.729-0.754-3.933-1.508c-1.203-0.756-2.2-1.832-2.99-3.234
		c-0.79-1.4-1.186-3.268-1.186-5.604c0-1.615,0.413-3.439,1.239-5.469s1.958-4.166,3.395-6.41c1.437-2.246,3.143-4.58,5.118-7.006
		c1.976-2.424,4.122-4.84,6.438-7.246c2.317-2.406,4.742-4.777,7.274-7.113c2.532-2.334,5.092-4.561,7.678-6.68l1.455-5.011
		c-1.939,1.724-3.96,3.116-6.062,4.175c-2.102,1.06-4.141,1.59-6.115,1.59c-1.725,0-3.404-0.351-5.038-1.051
		c-1.635-0.701-3.08-1.706-4.338-3.017c-1.258-1.311-2.263-2.91-3.017-4.795c-0.755-1.886-1.132-4.014-1.132-6.385
		c0-3.125,0.152-5.999,0.458-8.621c0.305-2.622,0.745-5.119,1.32-7.489c0.574-2.371,1.293-4.661,2.155-6.87s1.85-4.445,2.963-6.708
		c0.826-1.617,2.012-2.847,3.557-3.691c1.544-0.844,3.053-1.266,4.525-1.266c1.257,0,2.335,0.315,3.233,0.943
		c0.897,0.629,1.347,1.608,1.347,2.937c0,0.396-0.046,0.827-0.135,1.293c-0.09,0.467-0.242,0.97-0.458,1.509
		c-0.646,1.652-1.284,3.602-1.913,5.846c-0.629,2.246-1.185,4.544-1.67,6.897c-0.484,2.353-0.871,4.661-1.158,6.923
		c-0.288,2.263-0.432,4.257-0.432,5.981c0,0.898,0.062,1.77,0.189,2.613c0.125,0.845,0.35,1.599,0.673,2.263
		c0.323,0.665,0.755,1.204,1.293,1.616c0.539,0.414,1.221,0.62,2.048,0.62c1.328,0,2.532-0.574,3.61-1.724
		c1.077-1.149,2.011-2.532,2.802-4.148c0.789-1.617,1.428-3.287,1.912-5.011c0.485-1.724,0.799-3.16,0.943-4.31L445.99,93.858z
		 M420.774,174.895c1.509,0,2.937-0.441,4.283-1.32c1.347-0.881,2.586-2.039,3.718-3.477c1.132-1.436,2.164-3.07,3.099-4.902
		c0.934-1.832,1.759-3.709,2.478-5.631s1.329-3.799,1.832-5.631s0.897-3.467,1.186-4.902c-1.4,0.934-2.828,2.047-4.283,3.34
		s-2.874,2.686-4.257,4.176s-2.693,3.025-3.933,4.607c-1.239,1.58-2.326,3.098-3.26,4.553c-0.935,1.455-1.671,2.811-2.21,4.068
		c-0.538,1.256-0.808,2.299-0.808,3.125C418.619,174.229,419.337,174.895,420.774,174.895z"/>
</g>
<polygon fill="#EFEFF4" points="36,57 152,57 142,75.5 100.5,87.5 62,82 "/>
</svg>
